<svg width="561" height="391" viewBox="0 0 561 391" fill="none" xmlns="http://www.w3.org/2000/svg">
<path d="M222.271 220.949C222.271 220.949 245.902 226.807 275.509 226.092C305.117 225.377 340.284 222.478 340.284 222.478L365.444 263.901H201.004L222.271 220.949Z" fill="#536B99"/>
<path d="M287.738 46.3623C267.165 36.9103 201.28 66.9349 201.279 113.362C224.215 115.864 278.703 71.939 287.738 46.3623Z" fill="#333333"/>
<path d="M362.246 121.98C371.697 92.9284 337.781 43.5973 289.564 43.5973C289.567 66.6689 335.84 115.775 362.246 121.98Z" fill="#333333"/>
<path d="M366.137 126.141C409.798 133.447 418.011 149.016 424.518 190.638C386.658 185.832 373.332 172.454 366.137 126.141Z" fill="#333333" stroke="#333333" stroke-width="9.73016" stroke-linejoin="round"/>
<path d="M198.778 115.16C170.593 114.333 159.825 129.383 150.684 187.163C182.974 176.977 195.778 164.229 198.778 115.16Z" fill="#333333" stroke="#333333" stroke-width="9.73016" stroke-linejoin="round"/>
<path d="M222.41 219.829C243.539 226.918 319.434 225.389 339.311 220.385M222.41 219.829L201.571 263.893H367.807L339.311 220.385M222.41 219.829C222.41 219.829 196.92 161.872 201.571 114.187M339.311 220.385C339.311 220.385 361.002 171.742 363.576 127.253M201.571 114.187C203.289 96.5684 208.856 80.7696 220.881 70.5403C241.877 52.6805 265.364 42.649 289.132 43.4926M201.571 114.187C201.571 114.187 217.545 120.164 255.076 85.9692C292.607 51.7747 289.132 43.4926 289.132 43.4926M289.132 43.4926C308.286 44.1725 327.622 51.9154 345.984 68.3159C361.021 81.7481 364.926 103.93 363.576 127.253M289.132 43.4926C302.082 79.6837 317.793 98.1503 363.576 127.253" stroke="#333333" stroke-width="10.4315"/>
<path d="M259.939 137.168C259.939 141.263 257.973 143.655 254.211 143.655C251.889 143.655 246.316 141.263 246.316 137.168C246.316 133.074 247.555 129.755 253.128 129.755C256.889 129.755 259.939 133.074 259.939 137.168Z" fill="#333333"/>
<path d="M310.814 135.454C310.814 139.216 309.656 142.265 303.864 142.265C300.026 142.265 296.914 139.216 296.914 135.454C296.914 131.693 300.026 128.643 303.864 128.643C307.703 128.643 310.814 131.693 310.814 135.454Z" fill="#333333"/>
<path d="M285.239 153.319C285.239 155.392 284.405 157.073 280.235 157.073C277.471 157.073 275.23 155.392 275.23 153.319C275.23 151.247 277.471 149.566 280.235 149.566C282.998 149.566 285.239 151.247 285.239 153.319Z" fill="#333333"/>
<path d="M262.023 167.286C262.023 167.286 271.902 172.712 281.206 172.429C289.8 172.167 300.805 166.591 300.805 166.591" stroke="#333333" stroke-width="8.53488" stroke-linecap="round"/>
<path d="M24.648 329.109C24.856 329.057 25.168 329.031 25.584 329.031C26 328.979 26.39 329.005 26.754 329.109C27.17 329.161 27.508 329.291 27.768 329.499C28.08 329.655 28.262 329.863 28.314 330.123C28.418 330.747 28.314 331.319 28.002 331.839C27.742 332.307 27.248 332.723 26.52 333.087C24.544 334.023 22.49 335.089 20.358 336.285C18.226 337.429 16.406 338.469 14.898 339.405C15.834 340.029 16.9 340.731 18.096 341.511C19.344 342.291 20.618 343.123 21.918 344.007C23.218 344.839 24.518 345.749 25.818 346.737C27.118 347.673 28.34 348.609 29.484 349.545C30.524 350.429 30.706 351.235 30.03 351.963C29.718 352.327 29.198 352.587 28.47 352.743C27.794 352.899 27.144 352.821 26.52 352.509C25.376 351.937 24.128 351.261 22.776 350.481C21.424 349.649 20.046 348.817 18.642 347.985C17.238 347.101 15.86 346.243 14.508 345.411C13.208 344.527 12.012 343.721 10.92 342.993C11.128 344.813 11.31 346.633 11.466 348.453C11.674 350.273 11.856 352.093 12.012 353.913C12.324 354.901 12.298 355.707 11.934 356.331C11.57 356.955 10.972 357.241 10.14 357.189C9.256 357.033 8.606 356.695 8.19 356.175C7.774 355.603 7.462 354.875 7.254 353.991C6.942 351.859 6.578 349.337 6.162 346.425C5.798 343.513 5.408 340.497 4.992 337.377C4.576 334.257 4.16 331.215 3.744 328.251C3.38 325.287 3.042 322.661 2.73 320.373C2.626 319.645 2.548 318.865 2.496 318.033C2.496 317.149 2.782 316.577 3.354 316.317C4.134 316.005 4.94 316.187 5.772 316.863C6.604 317.487 7.228 318.449 7.644 319.749C8.06 322.141 8.476 324.741 8.892 327.549C9.308 330.357 9.724 333.321 10.14 336.441C11.18 335.817 12.376 335.141 13.728 334.413C15.132 333.633 16.51 332.905 17.862 332.229C19.266 331.501 20.566 330.851 21.762 330.279C22.958 329.707 23.92 329.317 24.648 329.109ZM65.3055 327.393C66.8655 327.965 68.1655 328.823 69.2055 329.967C70.2975 331.111 71.1295 332.411 71.7015 333.867C72.2735 335.271 72.5855 336.727 72.6375 338.235C72.7415 339.743 72.5855 341.147 72.1695 342.447C71.5975 343.903 70.8695 345.333 69.9855 346.737C69.1015 348.141 68.0875 349.389 66.9435 350.481C65.7995 351.573 64.4995 352.457 63.0435 353.133C61.5875 353.809 59.9755 354.147 58.2075 354.147C56.0755 354.147 54.2815 353.653 52.8255 352.665C51.3695 351.677 50.2255 350.403 49.3935 348.843C48.5615 347.283 48.0155 345.515 47.7555 343.539C47.5475 341.563 47.5995 339.587 47.9115 337.611C48.1195 336.155 48.4575 334.751 48.9255 333.399C49.4455 331.995 50.0955 330.773 50.8755 329.733C51.6555 328.641 52.5395 327.757 53.5275 327.081C54.5675 326.405 55.7375 326.067 57.0375 326.067C57.7655 326.067 58.6755 326.223 59.7675 326.535C60.8595 326.795 61.8735 327.185 62.8095 327.705C63.4855 327.081 64.3175 326.977 65.3055 327.393ZM62.3415 333.087C61.7695 332.723 61.0935 332.255 60.3135 331.683C59.5855 331.059 58.9355 330.747 58.3635 330.747C57.7395 330.747 57.1155 331.033 56.4915 331.605C55.9195 332.177 55.3995 332.853 54.9315 333.633C54.5155 334.361 54.1515 335.115 53.8395 335.895C53.5275 336.675 53.3195 337.299 53.2155 337.767C53.0595 338.547 52.9555 339.483 52.9035 340.575C52.8515 341.667 52.9295 342.759 53.1375 343.851C53.3455 344.891 53.7355 345.853 54.3075 346.737C54.9315 347.569 55.8415 348.167 57.0375 348.531C57.7655 348.739 58.6235 348.739 59.6115 348.531C60.5995 348.271 61.5615 347.829 62.4975 347.205C63.4855 346.581 64.3955 345.749 65.2275 344.709C66.1115 343.669 66.7875 342.473 67.2555 341.121C67.7755 339.613 67.7755 338.053 67.2555 336.441C66.7875 334.777 65.7995 333.581 64.2915 332.853C63.9275 333.113 63.5635 333.243 63.1995 333.243C62.8355 333.243 62.5495 333.191 62.3415 333.087ZM104.563 315.069C104.407 314.133 104.459 313.275 104.719 312.495C105.031 311.715 105.629 311.273 106.513 311.169C107.293 311.065 107.969 311.273 108.541 311.793C109.165 312.313 109.555 312.989 109.711 313.821C110.751 319.801 111.713 325.755 112.597 331.683C113.533 337.559 114.365 343.331 115.093 348.999C115.301 350.507 115.197 351.547 114.781 352.119C114.365 352.639 113.871 353.029 113.299 353.289C112.675 353.549 112.077 353.549 111.505 353.289C110.985 353.029 110.647 352.561 110.491 351.885L110.413 351.417L110.101 351.495C108.385 352.119 106.591 352.483 104.719 352.587C102.847 352.639 101.053 352.405 99.3367 351.885C97.6207 351.365 96.0867 350.533 94.7347 349.389C93.4347 348.193 92.4987 346.685 91.9267 344.865C90.6787 340.861 91.4587 337.221 94.2667 333.945C95.4627 332.593 96.9447 331.371 98.7127 330.279C100.481 329.187 102.613 328.329 105.109 327.705L106.513 327.393L104.563 315.069ZM96.6847 342.915C96.9967 344.163 97.5687 345.125 98.4007 345.801C99.2327 346.477 100.221 346.945 101.365 347.205C102.509 347.413 103.731 347.439 105.031 347.283C106.331 347.127 107.605 346.841 108.853 346.425L109.555 346.191L107.371 332.463L105.811 332.853C104.719 333.165 103.549 333.659 102.301 334.335C101.105 334.959 100.039 335.713 99.1027 336.597C98.1667 337.481 97.4387 338.469 96.9187 339.561C96.4507 340.653 96.3727 341.771 96.6847 342.915ZM149.68 327.393C151.24 327.965 152.54 328.823 153.58 329.967C154.672 331.111 155.504 332.411 156.076 333.867C156.648 335.271 156.96 336.727 157.012 338.235C157.116 339.743 156.96 341.147 156.544 342.447C155.972 343.903 155.244 345.333 154.36 346.737C153.476 348.141 152.462 349.389 151.318 350.481C150.174 351.573 148.874 352.457 147.418 353.133C145.962 353.809 144.35 354.147 142.582 354.147C140.45 354.147 138.656 353.653 137.2 352.665C135.744 351.677 134.6 350.403 133.768 348.843C132.936 347.283 132.39 345.515 132.13 343.539C131.922 341.563 131.974 339.587 132.286 337.611C132.494 336.155 132.832 334.751 133.3 333.399C133.82 331.995 134.47 330.773 135.25 329.733C136.03 328.641 136.914 327.757 137.902 327.081C138.942 326.405 140.112 326.067 141.412 326.067C142.14 326.067 143.05 326.223 144.142 326.535C145.234 326.795 146.248 327.185 147.184 327.705C147.86 327.081 148.692 326.977 149.68 327.393ZM146.716 333.087C146.144 332.723 145.468 332.255 144.688 331.683C143.96 331.059 143.31 330.747 142.738 330.747C142.114 330.747 141.49 331.033 140.866 331.605C140.294 332.177 139.774 332.853 139.306 333.633C138.89 334.361 138.526 335.115 138.214 335.895C137.902 336.675 137.694 337.299 137.59 337.767C137.434 338.547 137.33 339.483 137.278 340.575C137.226 341.667 137.304 342.759 137.512 343.851C137.72 344.891 138.11 345.853 138.682 346.737C139.306 347.569 140.216 348.167 141.412 348.531C142.14 348.739 142.998 348.739 143.986 348.531C144.974 348.271 145.936 347.829 146.872 347.205C147.86 346.581 148.77 345.749 149.602 344.709C150.486 343.669 151.162 342.473 151.63 341.121C152.15 339.613 152.15 338.053 151.63 336.441C151.162 334.777 150.174 333.581 148.666 332.853C148.302 333.113 147.938 333.243 147.574 333.243C147.21 333.243 146.924 333.191 146.716 333.087ZM180.435 329.421C180.487 330.253 180.565 331.293 180.669 332.541C180.825 333.737 180.981 335.011 181.137 336.363C181.293 337.663 181.449 338.963 181.605 340.263C181.813 341.563 181.995 342.759 182.151 343.851C182.723 342.707 183.425 341.303 184.257 339.639C185.089 337.975 185.947 336.389 186.831 334.881C187.767 333.321 188.703 332.021 189.639 330.981C190.627 329.889 191.511 329.343 192.291 329.343C193.123 329.343 193.877 329.759 194.553 330.591C195.281 331.371 195.905 332.333 196.425 333.477C196.945 334.621 197.387 335.843 197.751 337.143C198.167 338.443 198.505 339.587 198.765 340.575C198.973 339.899 199.233 339.145 199.545 338.313C199.909 337.429 200.273 336.545 200.637 335.661C201.053 334.725 201.495 333.815 201.963 332.931C202.483 332.047 203.029 331.267 203.601 330.591C204.277 329.863 205.005 329.343 205.785 329.031C206.565 328.667 207.137 328.485 207.501 328.485C207.969 328.485 208.515 328.641 209.139 328.953C209.815 329.213 210.491 329.577 211.167 330.045C211.843 330.513 212.467 331.085 213.039 331.761C213.663 332.385 214.157 333.035 214.521 333.711C215.249 335.115 215.821 336.649 216.237 338.313C216.705 339.977 217.043 341.563 217.251 343.071C217.459 344.579 217.589 345.931 217.641 347.127C217.745 348.271 217.823 349.077 217.875 349.545C217.875 350.221 217.797 350.741 217.641 351.105C217.485 351.417 217.199 351.677 216.783 351.885C216.211 352.145 215.717 352.249 215.301 352.197C214.885 352.093 214.547 351.911 214.287 351.651C214.027 351.391 213.819 351.105 213.663 350.793C213.507 350.429 213.403 350.117 213.351 349.857C213.195 348.661 213.013 347.439 212.805 346.191C212.649 344.943 212.467 343.747 212.259 342.603C212.051 341.407 211.791 340.315 211.479 339.327C211.219 338.287 210.933 337.377 210.621 336.597C210.517 336.389 210.335 336.129 210.075 335.817C209.867 335.453 209.607 335.115 209.295 334.803C209.035 334.491 208.775 334.231 208.515 334.023C208.255 333.815 208.073 333.685 207.969 333.633C207.449 333.633 206.903 334.127 206.331 335.115C205.759 336.051 205.213 337.195 204.693 338.547C204.173 339.899 203.679 341.329 203.211 342.837C202.795 344.293 202.483 345.541 202.275 346.581C202.275 347.933 202.015 348.947 201.495 349.623C200.975 350.247 200.429 350.559 199.857 350.559C199.285 350.559 198.661 350.351 197.985 349.935C197.361 349.467 196.945 348.947 196.737 348.375C196.425 347.543 196.087 346.607 195.723 345.567C195.359 344.527 194.969 343.461 194.553 342.369C194.189 341.277 193.799 340.211 193.383 339.171C193.019 338.131 192.655 337.195 192.291 336.363C191.563 337.351 190.835 338.443 190.107 339.639C189.431 340.835 188.755 342.057 188.079 343.305C187.455 344.553 186.831 345.801 186.207 347.049C185.635 348.245 185.089 349.311 184.569 350.247C184.205 350.819 183.815 351.339 183.399 351.807C182.983 352.223 182.489 352.431 181.917 352.431C181.501 352.431 181.059 352.249 180.591 351.885C180.123 351.469 179.681 350.975 179.265 350.403C178.849 349.831 178.459 349.181 178.095 348.453C177.783 347.725 177.549 346.997 177.393 346.269C176.977 344.033 176.613 341.589 176.301 338.937C176.041 336.233 175.781 333.607 175.521 331.059C175.469 330.175 175.573 329.369 175.833 328.641C176.145 327.861 176.717 327.341 177.549 327.081C178.433 326.925 179.109 327.055 179.577 327.471C180.045 327.887 180.331 328.537 180.435 329.421ZM254.62 327.393C256.18 327.965 257.48 328.823 258.52 329.967C259.612 331.111 260.444 332.411 261.016 333.867C261.588 335.271 261.9 336.727 261.952 338.235C262.056 339.743 261.9 341.147 261.484 342.447C260.912 343.903 260.184 345.333 259.3 346.737C258.416 348.141 257.402 349.389 256.258 350.481C255.114 351.573 253.814 352.457 252.358 353.133C250.902 353.809 249.29 354.147 247.522 354.147C245.39 354.147 243.596 353.653 242.14 352.665C240.684 351.677 239.54 350.403 238.708 348.843C237.876 347.283 237.33 345.515 237.07 343.539C236.862 341.563 236.914 339.587 237.226 337.611C237.434 336.155 237.772 334.751 238.24 333.399C238.76 331.995 239.41 330.773 240.19 329.733C240.97 328.641 241.854 327.757 242.842 327.081C243.882 326.405 245.052 326.067 246.352 326.067C247.08 326.067 247.99 326.223 249.082 326.535C250.174 326.795 251.188 327.185 252.124 327.705C252.8 327.081 253.632 326.977 254.62 327.393ZM251.656 333.087C251.084 332.723 250.408 332.255 249.628 331.683C248.9 331.059 248.25 330.747 247.678 330.747C247.054 330.747 246.43 331.033 245.806 331.605C245.234 332.177 244.714 332.853 244.246 333.633C243.83 334.361 243.466 335.115 243.154 335.895C242.842 336.675 242.634 337.299 242.53 337.767C242.374 338.547 242.27 339.483 242.218 340.575C242.166 341.667 242.244 342.759 242.452 343.851C242.66 344.891 243.05 345.853 243.622 346.737C244.246 347.569 245.156 348.167 246.352 348.531C247.08 348.739 247.938 348.739 248.926 348.531C249.914 348.271 250.876 347.829 251.812 347.205C252.8 346.581 253.71 345.749 254.542 344.709C255.426 343.669 256.102 342.473 256.57 341.121C257.09 339.613 257.09 338.053 256.57 336.441C256.102 334.777 255.114 333.581 253.606 332.853C253.242 333.113 252.878 333.243 252.514 333.243C252.15 333.243 251.864 333.191 251.656 333.087ZM329.233 333.087C329.649 333.659 330.039 334.387 330.403 335.271C330.819 336.103 331.131 336.961 331.339 337.845C331.651 339.249 331.989 340.783 332.353 342.447C332.769 344.059 333.159 345.749 333.523 347.517C333.939 349.285 334.303 351.079 334.615 352.899C334.979 354.719 335.291 356.461 335.551 358.125C335.863 360.413 335.681 362.597 335.005 364.677C334.381 366.809 333.315 368.707 331.807 370.371C330.299 372.035 328.427 373.361 326.191 374.349C323.955 375.337 321.433 375.883 318.625 375.987C318.001 375.935 317.351 375.623 316.675 375.051C315.999 374.531 315.661 373.985 315.661 373.413C315.609 372.841 315.869 372.373 316.441 372.009C317.065 371.697 317.689 371.489 318.313 371.385C319.405 371.281 320.523 371.047 321.667 370.683C322.863 370.371 323.981 369.903 325.021 369.279C326.061 368.655 326.997 367.901 327.829 367.017C328.713 366.133 329.389 365.093 329.857 363.897C330.221 362.961 330.403 361.817 330.403 360.465C330.403 359.061 330.299 357.683 330.091 356.331C329.935 354.979 329.701 353.705 329.389 352.509C329.129 351.261 328.895 350.325 328.687 349.701C328.323 350.065 327.855 350.455 327.283 350.871C326.763 351.287 326.165 351.677 325.489 352.041C324.813 352.405 324.059 352.691 323.227 352.899C322.447 353.107 321.641 353.185 320.809 353.133C319.925 353.081 319.093 352.769 318.313 352.197C317.585 351.625 316.935 350.897 316.363 350.013C315.791 349.077 315.323 348.011 314.959 346.815C314.647 345.619 314.491 344.371 314.491 343.071C314.595 339.951 315.375 337.195 316.831 334.803C318.339 332.359 320.731 330.461 324.007 329.109C324.267 329.057 324.605 329.005 325.021 328.953C325.489 328.901 325.957 328.901 326.425 328.953C326.893 328.953 327.335 329.005 327.751 329.109C328.219 329.213 328.609 329.369 328.921 329.577C329.493 329.993 329.779 330.591 329.779 331.371C329.779 332.151 329.597 332.723 329.233 333.087ZM319.405 343.773C319.405 344.345 319.457 344.995 319.561 345.723C319.665 346.399 320.003 346.893 320.575 347.205C321.199 347.569 321.953 347.621 322.837 347.361C323.773 347.101 324.631 346.659 325.411 346.035C326.139 345.463 326.607 344.839 326.815 344.163C327.075 343.435 327.075 342.473 326.815 341.277C326.555 340.081 326.269 338.833 325.957 337.533C325.645 336.233 325.437 335.063 325.333 334.023C324.709 334.335 324.033 334.777 323.305 335.349C322.629 335.921 322.005 336.649 321.433 337.533C320.861 338.365 320.367 339.301 319.951 340.341C319.587 341.381 319.405 342.525 319.405 343.773ZM373.448 325.755C373.656 327.211 373.812 328.771 373.916 330.435C374.072 332.047 374.176 333.685 374.228 335.349C374.332 337.013 374.384 338.625 374.384 340.185C374.384 341.745 374.358 343.149 374.306 344.397C375.97 345.541 376.958 346.555 377.27 347.439C377.634 348.323 377.686 349.103 377.426 349.779C377.114 350.715 376.542 351.209 375.71 351.261C374.93 351.261 374.02 350.975 372.98 350.403C372.252 350.923 371.42 351.495 370.484 352.119C369.548 352.691 368.56 353.263 367.52 353.835C366.48 354.355 365.44 354.823 364.4 355.239C363.36 355.655 362.398 355.941 361.514 356.097C359.85 356.357 358.342 356.045 356.99 355.161C355.69 354.277 354.806 352.951 354.338 351.183C354.026 349.987 353.948 348.765 354.104 347.517C354.26 346.217 354.65 344.995 355.274 343.851C355.898 342.655 356.73 341.589 357.77 340.653C358.862 339.717 360.136 338.989 361.592 338.469C361.956 338.313 362.45 338.183 363.074 338.079C363.75 337.975 364.426 337.949 365.102 338.001C365.83 338.001 366.558 338.131 367.286 338.391C368.014 338.651 368.69 339.093 369.314 339.717C369.314 338.833 369.288 337.871 369.236 336.831C369.236 335.739 369.21 334.647 369.158 333.555C369.106 332.463 369.028 331.449 368.924 330.513C368.872 329.525 368.794 328.693 368.69 328.017C368.586 327.237 368.274 326.769 367.754 326.613C367.286 326.405 366.688 326.431 365.96 326.691C364.712 327.107 363.256 327.913 361.592 329.109C359.928 330.305 358.342 331.579 356.834 332.931C356.366 333.399 355.82 333.607 355.196 333.555C354.624 333.503 354.13 333.269 353.714 332.853C353.298 332.437 353.064 331.969 353.012 331.449C352.96 330.877 353.168 330.279 353.636 329.655C354.52 328.719 355.508 327.757 356.6 326.769C357.692 325.781 358.836 324.897 360.032 324.117C361.228 323.285 362.45 322.609 363.698 322.089C364.946 321.569 366.194 321.283 367.442 321.231C369.262 321.179 370.666 321.595 371.654 322.479C372.642 323.311 373.24 324.403 373.448 325.755ZM364.4 342.525C363.724 342.681 362.996 343.019 362.216 343.539C361.488 344.007 360.812 344.605 360.188 345.333C359.616 346.009 359.174 346.789 358.862 347.673C358.602 348.505 358.602 349.337 358.862 350.169C358.966 350.481 359.174 350.715 359.486 350.871C359.85 351.027 360.24 351.053 360.656 350.949C361.904 350.689 363.308 350.195 364.868 349.467C366.48 348.687 367.754 347.855 368.69 346.971C368.69 346.659 368.534 346.269 368.222 345.801C367.91 345.281 367.546 344.787 367.13 344.319C366.714 343.799 366.246 343.357 365.726 342.993C365.258 342.629 364.816 342.473 364.4 342.525ZM401.011 318.111C401.271 323.779 401.713 329.655 402.337 335.739C402.961 341.771 403.637 347.543 404.365 353.055C404.521 355.343 403.897 356.513 402.493 356.565C402.181 356.565 401.869 356.461 401.557 356.253C401.245 355.993 400.959 355.681 400.699 355.317C400.439 354.953 400.179 354.563 399.919 354.147C399.711 353.731 399.581 353.367 399.529 353.055C399.113 350.403 398.723 347.595 398.359 344.631C397.995 341.667 397.657 338.703 397.345 335.739C397.085 332.723 396.851 329.785 396.643 326.925C396.435 324.065 396.305 321.439 396.253 319.047C396.357 317.799 396.539 316.759 396.799 315.927C397.059 315.043 397.605 314.627 398.437 314.679C399.321 314.731 399.945 315.095 400.309 315.771C400.725 316.395 400.959 317.175 401.011 318.111ZM429.792 318.111C430.052 323.779 430.494 329.655 431.118 335.739C431.742 341.771 432.418 347.543 433.146 353.055C433.302 355.343 432.678 356.513 431.274 356.565C430.962 356.565 430.65 356.461 430.338 356.253C430.026 355.993 429.74 355.681 429.48 355.317C429.22 354.953 428.96 354.563 428.7 354.147C428.492 353.731 428.362 353.367 428.31 353.055C427.894 350.403 427.504 347.595 427.14 344.631C426.776 341.667 426.438 338.703 426.126 335.739C425.866 332.723 425.632 329.785 425.424 326.925C425.216 324.065 425.086 321.439 425.034 319.047C425.138 317.799 425.32 316.759 425.58 315.927C425.84 315.043 426.386 314.627 427.218 314.679C428.102 314.731 428.726 315.095 429.09 315.771C429.506 316.395 429.74 317.175 429.792 318.111ZM470.897 336.285C468.869 337.481 466.685 338.417 464.345 339.093C462.005 339.717 459.483 340.029 456.779 340.029C456.883 341.849 457.403 343.305 458.339 344.397C459.275 345.437 460.445 346.061 461.849 346.269C462.681 346.373 463.513 346.347 464.345 346.191C465.229 346.035 466.035 345.801 466.763 345.489C467.543 345.125 468.245 344.735 468.869 344.319C469.493 343.903 470.039 343.487 470.507 343.071C470.975 342.655 471.469 342.395 471.989 342.291C472.509 342.135 472.899 342.109 473.159 342.213C473.887 342.473 474.147 343.253 473.939 344.553C473.107 346.217 471.911 347.647 470.351 348.843C468.791 349.987 467.049 350.715 465.125 351.027C463.461 351.339 461.745 351.261 459.977 350.793C458.209 350.325 456.623 349.415 455.219 348.063C454.023 346.867 453.113 345.463 452.489 343.851C451.865 342.239 451.475 340.575 451.319 338.859C451.163 337.247 451.293 335.713 451.709 334.257C452.177 332.801 452.879 331.527 453.815 330.435C454.751 329.291 455.921 328.355 457.325 327.627C458.729 326.899 460.367 326.483 462.239 326.379C464.475 326.223 466.503 326.639 468.323 327.627C470.143 328.615 471.417 329.993 472.145 331.761C472.561 332.749 472.665 333.607 472.457 334.335C472.301 335.063 471.781 335.713 470.897 336.285ZM461.927 330.981C461.407 331.085 460.835 331.267 460.211 331.527C459.639 331.787 459.093 332.125 458.573 332.541C458.105 332.905 457.663 333.347 457.247 333.867C456.883 334.335 456.675 334.881 456.623 335.505C457.507 335.505 458.469 335.427 459.509 335.271C460.601 335.115 461.641 334.933 462.629 334.725C463.669 334.465 464.605 334.179 465.437 333.867C466.321 333.555 467.049 333.217 467.621 332.853C467.205 331.865 466.425 331.267 465.281 331.059C464.189 330.799 463.071 330.773 461.927 330.981ZM515.169 327.705C514.233 328.225 513.245 328.771 512.205 329.343C511.217 329.915 510.203 330.591 509.163 331.371C508.175 332.099 507.213 332.983 506.277 334.023C505.393 335.011 504.587 336.207 503.859 337.611C502.819 339.587 502.117 341.615 501.753 343.695C501.389 345.723 501.155 347.725 501.051 349.701C501.051 350.637 500.817 351.599 500.349 352.587C499.933 353.523 499.335 353.991 498.555 353.991C497.567 353.991 496.761 353.497 496.137 352.509C495.565 351.469 495.175 350.481 494.967 349.545C494.083 345.853 493.355 342.213 492.783 338.625C492.211 334.985 491.717 331.371 491.301 327.783C491.301 327.055 491.509 326.587 491.925 326.379C492.393 326.171 492.913 326.093 493.485 326.145C494.109 326.197 494.707 326.353 495.279 326.613C495.851 326.873 496.189 327.289 496.293 327.861C496.501 329.785 496.761 331.813 497.073 333.945C497.385 336.025 497.697 337.819 498.009 339.327C498.217 337.559 498.789 335.843 499.725 334.179C500.661 332.515 501.805 331.007 503.157 329.655C504.561 328.303 506.121 327.159 507.837 326.223C509.605 325.287 511.399 324.663 513.219 324.351C513.999 324.247 514.649 324.247 515.169 324.351C515.689 324.455 516.053 324.637 516.261 324.897C516.469 325.157 516.495 325.573 516.339 326.145C516.235 326.717 515.845 327.237 515.169 327.705ZM556.538 330.045C556.694 332.853 556.85 335.687 557.006 338.547C557.214 341.407 557.266 344.241 557.162 347.049C557.058 349.805 556.772 352.509 556.304 355.161C555.888 357.813 555.16 360.361 554.12 362.805C553.08 365.197 551.676 367.433 549.908 369.513C548.192 371.593 546.008 373.465 543.356 375.129C542.94 375.389 542.472 375.545 541.952 375.597C541.484 375.649 541.016 375.623 540.548 375.519C540.08 375.467 539.664 375.337 539.3 375.129C538.936 374.973 538.702 374.739 538.598 374.427C538.442 373.959 538.52 373.439 538.832 372.867C539.144 372.295 539.664 371.697 540.392 371.073C542.68 369.357 544.604 367.537 546.164 365.613C547.724 363.689 548.972 361.609 549.908 359.373C550.844 357.137 551.442 354.719 551.702 352.119C552.014 349.467 552.014 346.581 551.702 343.461C551.078 344.241 550.35 345.047 549.518 345.879C548.686 346.711 547.802 347.465 546.866 348.141C545.93 348.765 544.968 349.311 543.98 349.779C542.992 350.195 542.056 350.403 541.172 350.403C540.444 350.403 539.716 350.247 538.988 349.935C538.26 349.623 537.532 349.025 536.804 348.141C535.972 347.049 535.218 345.827 534.542 344.475C533.918 343.071 533.372 341.719 532.904 340.419C532.436 339.119 532.046 337.949 531.734 336.909C531.474 335.869 531.318 335.141 531.266 334.725C531.162 334.205 531.162 333.711 531.266 333.243C531.37 332.775 531.708 332.489 532.28 332.385C533.06 332.229 533.788 332.281 534.464 332.541C535.14 332.801 535.608 333.217 535.868 333.789C536.076 334.361 536.362 335.245 536.726 336.441C537.09 337.637 537.532 338.833 538.052 340.029C538.572 341.173 539.118 342.187 539.69 343.071C540.314 343.955 540.964 344.397 541.64 344.397C542.42 344.397 543.33 344.007 544.37 343.227C545.462 342.447 546.502 341.433 547.49 340.185C548.478 338.937 549.31 337.559 549.986 336.051C550.714 334.491 551.078 332.983 551.078 331.527C551.078 331.215 551.13 330.851 551.234 330.435C551.338 330.019 551.494 329.629 551.702 329.265C551.91 328.849 552.144 328.511 552.404 328.251C552.716 327.939 553.028 327.757 553.34 327.705C554.172 327.601 554.9 327.835 555.524 328.407C556.2 328.927 556.538 329.473 556.538 330.045Z" fill="#333333"/>
</svg>
