<svg width="985" height="985" viewBox="0 0 985 985" fill="none" xmlns="http://www.w3.org/2000/svg">
<path d="M295.06 698.971C295.06 698.971 369.815 717.503 463.478 715.241C557.141 712.979 668.393 703.808 668.393 703.808L747.984 834.848H227.781L295.06 698.971Z" fill="#375A8F"/>
<path d="M502.169 146.666C437.088 116.765 228.661 211.747 228.658 358.618C301.214 366.533 473.589 227.578 502.169 146.666Z" fill="#333333"/>
<path d="M737.873 385.881C767.772 293.977 660.478 137.919 507.946 137.919C507.953 210.905 654.337 366.253 737.873 385.881Z" fill="#333333"/>
<path d="M750.184 399.045C888.307 422.157 914.288 471.411 934.871 603.081C815.103 587.877 772.947 545.557 750.184 399.045Z" fill="#333333" stroke="#333333" stroke-width="30.7812" stroke-linejoin="round"/>
<path d="M220.745 364.306C131.581 361.69 97.5177 409.301 68.5977 592.088C170.747 559.864 211.253 519.536 220.745 364.306Z" fill="#333333" stroke="#333333" stroke-width="30.7812" stroke-linejoin="round"/>
<path d="M295.501 695.426C362.34 717.852 602.434 713.015 665.315 697.185M295.501 695.426L229.575 834.821H755.46L665.315 697.185M295.501 695.426C295.501 695.426 214.863 512.08 229.575 361.228M665.315 697.185C665.315 697.185 733.932 543.302 742.076 402.563M229.575 361.228C235.01 305.493 252.621 255.514 290.663 223.153C357.083 166.654 431.384 134.92 506.572 137.588M229.575 361.228C229.575 361.228 280.11 380.137 398.838 271.963C517.565 163.789 506.572 137.588 506.572 137.588M506.572 137.588C567.167 139.739 628.337 164.234 686.422 216.117C733.995 258.609 746.346 328.78 742.076 402.563M506.572 137.588C547.542 252.078 597.242 310.497 742.076 402.563" stroke="#333333" stroke-width="33"/>
<path d="M414.227 433.931C414.227 446.883 408.008 454.452 396.108 454.452C388.762 454.452 371.133 446.883 371.133 433.931C371.133 420.979 375.05 410.479 392.68 410.479C404.58 410.479 414.227 420.979 414.227 433.931Z" fill="#333333"/>
<path d="M575.169 428.507C575.169 440.407 571.504 450.054 553.182 450.054C541.039 450.054 531.195 440.407 531.195 428.507C531.195 416.607 541.039 406.96 553.182 406.96C565.325 406.96 575.169 416.607 575.169 428.507Z" fill="#333333"/>
<path d="M494.258 485.025C494.258 491.582 491.62 496.897 478.428 496.897C469.685 496.897 462.598 491.582 462.598 485.025C462.598 478.467 469.685 473.152 478.428 473.152C487.171 473.152 494.258 478.467 494.258 485.025Z" fill="#333333"/>
<path d="M420.824 529.206C420.824 529.206 452.075 546.372 481.507 545.476C508.696 544.649 543.509 527.007 543.509 527.007" stroke="#333333" stroke-width="27" stroke-linecap="round"/>
</svg>
